<svg xmlns="http://www.w3.org/2000/svg" width="1441.209716796875" height="1492.6890869140625" viewBox="-680.3353271484375 -655.7760009765625 1441.209716796875 1492.6890869140625"><title>Neo4j Graph Visualization</title><desc>Created using Neo4j (http://www.neo4j.com/)</desc><g class="layer relationships"><g class="relationship" transform="translate(15.522364433490004 539.8591438125745) rotate(454.68813062092715)"><path class="b-outline" fill="#A5ABB6" stroke="none" d="M 25 0.5 L 63.21050263209642 0.5 L 63.21050263209642 -0.5 L 25 -0.5 Z M 85.21440888209642 0.5 L 123.42491151419284 0.5 L 123.42491151419284 3.5 L 130.42491151419284 0 L 123.42491151419284 -3.5 L 123.42491151419284 -0.5 L 85.21440888209642 -0.5 Z"/><text text-anchor="middle" pointer-events="none" font-size="8px" fill="#000000" x="74.21245575709642" y="3" transform="rotate(180 74.21245575709642 0)" font-family="Helvetica Neue, Helvetica, Arial, sans-serif">likes</text></g><g class="relationship" transform="translate(15.522364433490004 539.8591438125745) rotate(417.1709919776972)"><path class="b-outline" fill="#A5ABB6" stroke="none" d="M 25 0.5 L 60.72909320214126 0.5 L 60.72909320214126 -0.5 L 25 -0.5 Z M 86.74081195214126 0.5 L 122.46990515428251 0.5 L 122.46990515428251 3.5 L 129.46990515428251 0 L 122.46990515428251 -3.5 L 122.46990515428251 -0.5 L 86.74081195214126 -0.5 Z"/><text text-anchor="middle" pointer-events="none" font-size="8px" fill="#000000" x="73.73495257714126" y="3" font-family="Helvetica Neue, Helvetica, Arial, sans-serif">name</text></g><g class="relationship" transform="translate(15.522364433490004 539.8591438125745) rotate(511.33860329887)"><path class="b-outline" fill="#A5ABB6" stroke="none" d="M 24.018736134675446,-6.953439040707552 L 24.277555179777966,-5.987513214418485 A 378.4879229396597 378.4879229396597 0 0 1 106.09902537789954,-18.53995562441139 L 106.05638620337949,-19.53904616124794 A 379.4879229396597 379.4879229396597 0 0 0 24.018736134675446,-6.953439040707552 Z M 132.98396689818424,-19.731983137568193 L 132.95564839772425,-18.732384186722527 A 378.4879229396597 378.4879229396597 0 0 1 214.9485860458251,-7.353677244678186 L 214.21373183424635,-4.4450711717069815 L 221.85780925135438,-6.123785096489627 L 215.92839166126345,-11.231818675306458 L 215.1935374496847,-8.323212602335254 A 379.4879229396597 379.4879229396597 0 0 0 132.98396689818424,-19.731983137568193"/><text text-anchor="middle" pointer-events="none" font-size="8px" fill="#000000" x="119.52204709707054" y="-16.374448641779168" transform="rotate(180 119.52204709707054 -19.374448641779168)" font-family="Helvetica Neue, Helvetica, Arial, sans-serif">wants</text></g><g class="relationship" transform="translate(15.522364433490004 539.8591438125745) rotate(314.71466965308997)"><path class="b-outline" fill="#A5ABB6" stroke="none" d="M 24.018736134675446,-6.953439040707552 L 24.277555179777966,-5.987513214418485 A 465.30906569902623 465.30906569902623 0 0 1 128.4437829066377,-21.558187875164663 L 128.40882846122952,-22.557576781820217 A 466.30906569902623 466.30906569902623 0 0 0 24.018736134675446,-6.953439040707552 Z M 155.3318985878035,-22.72150672580449 L 155.30911649728088,-21.721766271310685 A 465.30906569902623 465.30906569902623 0 0 1 259.6572281202237,-7.42069956421972 L 258.9161153845026,-4.5136818633874745 L 266.56378821145245,-6.175939464342533 L 260.6453784345185,-11.296723165329379 L 259.90426569879736,-8.389705464497135 A 466.30906569902623 466.30906569902623 0 0 0 155.3318985878035,-22.72150672580449"/><text text-anchor="middle" pointer-events="none" font-size="8px" fill="#000000" x="141.87222452017252" y="-19.333900726099955" font-family="Helvetica Neue, Helvetica, Arial, sans-serif">wants</text></g><g class="relationship" transform="translate(220.11467503554226 333.2188970581095) rotate(285.4303693065709)"><path class="b-outline" fill="#A5ABB6" stroke="none" d="M 25 0.5 L 142.20023151963494 0.5 L 142.20023151963494 -0.5 L 25 -0.5 Z M 177.55179401963494 0.5 L 294.7520255392699 0.5 L 294.7520255392699 3.5 L 301.7520255392699 0 L 294.7520255392699 -3.5 L 294.7520255392699 -0.5 L 177.55179401963494 -0.5 Z"/><text text-anchor="middle" pointer-events="none" font-size="8px" fill="#000000" x="159.87601276963494" y="3" font-family="Helvetica Neue, Helvetica, Arial, sans-serif">includes</text></g><g class="relationship" transform="translate(307.0526367728368 18.244807642836538) rotate(209.14803334727424)"><path class="b-outline" fill="#A5ABB6" stroke="none" d="M 25 0.5 L 170.69159428608333 0.5 L 170.69159428608333 -0.5 L 25 -0.5 Z M 206.04315678608333 0.5 L 351.73475107216666 0.5 L 351.73475107216666 3.5 L 358.73475107216666 0 L 351.73475107216666 -3.5 L 351.73475107216666 -0.5 L 206.04315678608333 -0.5 Z"/><text text-anchor="middle" pointer-events="none" font-size="8px" fill="#000000" x="188.36737553608333" y="3" transform="rotate(180 188.36737553608333 0)" font-family="Helvetica Neue, Helvetica, Arial, sans-serif">includes</text></g><g class="relationship" transform="translate(307.0526367728368 18.244807642836538) rotate(229.29782535506882)"><path class="b-outline" fill="#A5ABB6" stroke="none" d="M 25 0.5 L 69.89631621968788 0.5 L 69.89631621968788 -0.5 L 25 -0.5 Z M 105.24787871968788 0.5 L 150.14419493937575 0.5 L 150.14419493937575 3.5 L 157.14419493937575 0 L 150.14419493937575 -3.5 L 150.14419493937575 -0.5 L 105.24787871968788 -0.5 Z"/><text text-anchor="middle" pointer-events="none" font-size="8px" fill="#000000" x="87.57209746968788" y="3" transform="rotate(180 87.57209746968788 0)" font-family="Helvetica Neue, Helvetica, Arial, sans-serif">includes</text></g><g class="relationship" transform="translate(307.0526367728368 18.244807642836538) rotate(396.39465979157194)"><path class="b-outline" fill="#A5ABB6" stroke="none" d="M 25 0.5 L 144.65865728847652 0.5 L 144.65865728847652 -0.5 L 25 -0.5 Z M 180.01021978847652 0.5 L 299.66887707695304 0.5 L 299.66887707695304 3.5 L 306.66887707695304 0 L 299.66887707695304 -3.5 L 299.66887707695304 -0.5 L 180.01021978847652 -0.5 Z"/><text text-anchor="middle" pointer-events="none" font-size="8px" fill="#000000" x="162.33443853847652" y="3" font-family="Helvetica Neue, Helvetica, Arial, sans-serif">includes</text></g><g class="relationship" transform="translate(307.0526367728368 18.244807642836538) rotate(286.99029984945406)"><path class="b-outline" fill="#A5ABB6" stroke="none" d="M 25 0.5 L 96.67239050810484 0.5 L 96.67239050810484 -0.5 L 25 -0.5 Z M 132.02395300810485 0.5 L 203.69634351620968 0.5 L 203.69634351620968 3.5 L 210.69634351620968 0 L 203.69634351620968 -3.5 L 203.69634351620968 -0.5 L 132.02395300810485 -0.5 Z"/><text text-anchor="middle" pointer-events="none" font-size="8px" fill="#000000" x="114.34817175810484" y="3" font-family="Helvetica Neue, Helvetica, Arial, sans-serif">includes</text></g><g class="relationship" transform="translate(307.0526367728368 18.244807642836538) rotate(457.87673721887825)"><path class="b-outline" fill="#A5ABB6" stroke="none" d="M 25 0.5 L 55.874465515476686 0.5 L 55.874465515476686 -0.5 L 25 -0.5 Z M 91.22602801547669 0.5 L 122.10049353095337 0.5 L 122.10049353095337 3.5 L 129.10049353095337 0 L 122.10049353095337 -3.5 L 122.10049353095337 -0.5 L 91.22602801547669 -0.5 Z"/><text text-anchor="middle" pointer-events="none" font-size="8px" fill="#000000" x="73.55024676547669" y="3" transform="rotate(180 73.55024676547669 0)" font-family="Helvetica Neue, Helvetica, Arial, sans-serif">includes</text></g><g class="relationship" transform="translate(307.0526367728368 18.244807642836538) rotate(373.87697244294367)"><path class="b-outline" fill="#A5ABB6" stroke="none" d="M 25 0.5 L 76.17885473157743 0.5 L 76.17885473157743 -0.5 L 25 -0.5 Z M 111.53041723157743 0.5 L 162.70927196315486 0.5 L 162.70927196315486 3.5 L 169.70927196315486 0 L 162.70927196315486 -3.5 L 162.70927196315486 -0.5 L 111.53041723157743 -0.5 Z"/><text text-anchor="middle" pointer-events="none" font-size="8px" fill="#000000" x="93.85463598157743" y="3" font-family="Helvetica Neue, Helvetica, Arial, sans-serif">includes</text></g><g class="relationship" transform="translate(307.0526367728368 18.244807642836538) rotate(274.8840622659811)"><path class="b-outline" fill="#A5ABB6" stroke="none" d="M 25 0.5 L 137.332795955054 0.5 L 137.332795955054 -0.5 L 25 -0.5 Z M 172.684358455054 0.5 L 285.017154410108 0.5 L 285.017154410108 3.5 L 292.017154410108 0 L 285.017154410108 -3.5 L 285.017154410108 -0.5 L 172.684358455054 -0.5 Z"/><text text-anchor="middle" pointer-events="none" font-size="8px" fill="#000000" x="155.008577205054" y="3" font-family="Helvetica Neue, Helvetica, Arial, sans-serif">includes</text></g><g class="relationship" transform="translate(220.11467503554226 333.2188970581095) rotate(420.21704291051907)"><path class="b-outline" fill="#A5ABB6" stroke="none" d="M 25 0.5 L 92.57739140716919 0.5 L 92.57739140716919 -0.5 L 25 -0.5 Z M 130.1516101571692 0.5 L 197.72900156433838 0.5 L 197.72900156433838 3.5 L 204.72900156433838 0 L 197.72900156433838 -3.5 L 197.72900156433838 -0.5 L 130.1516101571692 -0.5 Z"/><text text-anchor="middle" pointer-events="none" font-size="8px" fill="#000000" x="111.36450078216919" y="3" font-family="Helvetica Neue, Helvetica, Arial, sans-serif">excludes</text></g><g class="relationship" transform="translate(334.22470395599385 532.6037396603532) rotate(444.2096736582398)"><path class="b-outline" fill="#A5ABB6" stroke="none" d="M 25 0.5 L 55.219740699150876 0.5 L 55.219740699150876 -0.5 L 25 -0.5 Z M 90.57130319915088 0.5 L 120.79104389830175 0.5 L 120.79104389830175 3.5 L 127.79104389830175 0 L 120.79104389830175 -3.5 L 120.79104389830175 -0.5 L 90.57130319915088 -0.5 Z"/><text text-anchor="middle" pointer-events="none" font-size="8px" fill="#000000" x="72.89552194915088" y="3" font-family="Helvetica Neue, Helvetica, Arial, sans-serif">includes</text></g><g class="relationship" transform="translate(334.22470395599385 532.6037396603532) rotate(406.42054655573725)"><path class="b-outline" fill="#A5ABB6" stroke="none" d="M 25 0.5 L 56.28198907120361 0.5 L 56.28198907120361 -0.5 L 25 -0.5 Z M 91.63355157120361 0.5 L 122.91554064240722 0.5 L 122.91554064240722 3.5 L 129.91554064240722 0 L 122.91554064240722 -3.5 L 122.91554064240722 -0.5 L 91.63355157120361 -0.5 Z"/><text text-anchor="middle" pointer-events="none" font-size="8px" fill="#000000" x="73.95777032120361" y="3" font-family="Helvetica Neue, Helvetica, Arial, sans-serif">includes</text></g><g class="relationship" transform="translate(334.22470395599385 532.6037396603532) rotate(368.4032537076955)"><path class="b-outline" fill="#A5ABB6" stroke="none" d="M 25 0.5 L 54.349308196711874 0.5 L 54.349308196711874 -0.5 L 25 -0.5 Z M 89.70087069671187 0.5 L 119.05017889342375 0.5 L 119.05017889342375 3.5 L 126.05017889342375 0 L 119.05017889342375 -3.5 L 119.05017889342375 -0.5 L 89.70087069671187 -0.5 Z"/><text text-anchor="middle" pointer-events="none" font-size="8px" fill="#000000" x="72.02508944671187" y="3" font-family="Helvetica Neue, Helvetica, Arial, sans-serif">includes</text></g><g class="relationship" transform="translate(220.11467503554226 333.2188970581095) rotate(462.8258016289741)"><path class="b-outline" fill="#A5ABB6" stroke="none" d="M 25 0.5 L 52.04197843961036 0.5 L 52.04197843961036 -0.5 L 25 -0.5 Z M 87.39354093961036 0.5 L 114.43551937922072 0.5 L 114.43551937922072 3.5 L 121.43551937922072 0 L 114.43551937922072 -3.5 L 114.43551937922072 -0.5 L 87.39354093961036 -0.5 Z"/><text text-anchor="middle" pointer-events="none" font-size="8px" fill="#000000" x="69.71775968961036" y="3" transform="rotate(180 69.71775968961036 0)" font-family="Helvetica Neue, Helvetica, Arial, sans-serif">includes</text></g><g class="relationship" transform="translate(574.0292018703121 215.03850091129604) rotate(430.27741885052177)"><path class="b-outline" fill="#A5ABB6" stroke="none" d="M 25 0.5 L 59.25795981991227 0.5 L 59.25795981991227 -0.5 L 25 -0.5 Z M 94.60952231991227 0.5 L 128.86748213982455 0.5 L 128.86748213982455 3.5 L 135.86748213982455 0 L 128.86748213982455 -3.5 L 128.86748213982455 -0.5 L 94.60952231991227 -0.5 Z"/><text text-anchor="middle" pointer-events="none" font-size="8px" fill="#000000" x="76.93374106991227" y="3" font-family="Helvetica Neue, Helvetica, Arial, sans-serif">includes</text></g><g class="relationship" transform="translate(574.0292018703121 215.03850091129604) rotate(466.93556573940896)"><path class="b-outline" fill="#A5ABB6" stroke="none" d="M 25 0.5 L 55.806139279860275 0.5 L 55.806139279860275 -0.5 L 25 -0.5 Z M 91.15770177986028 0.5 L 121.96384105972055 0.5 L 121.96384105972055 3.5 L 128.96384105972055 0 L 121.96384105972055 -3.5 L 121.96384105972055 -0.5 L 91.15770177986028 -0.5 Z"/><text text-anchor="middle" pointer-events="none" font-size="8px" fill="#000000" x="73.48192052986028" y="3" transform="rotate(180 73.48192052986028 0)" font-family="Helvetica Neue, Helvetica, Arial, sans-serif">includes</text></g><g class="relationship" transform="translate(574.0292018703121 215.03850091129604) rotate(358.28911329650646)"><path class="b-outline" fill="#A5ABB6" stroke="none" d="M 25 0.5 L 57.78192684985497 0.5 L 57.78192684985497 -0.5 L 25 -0.5 Z M 93.13348934985497 0.5 L 125.91541619970994 0.5 L 125.91541619970994 3.5 L 132.91541619970994 0 L 125.91541619970994 -3.5 L 125.91541619970994 -0.5 L 93.13348934985497 -0.5 Z"/><text text-anchor="middle" pointer-events="none" font-size="8px" fill="#000000" x="75.45770809985497" y="3" font-family="Helvetica Neue, Helvetica, Arial, sans-serif">includes</text></g><g class="relationship" transform="translate(574.0292018703121 215.03850091129604) rotate(394.51275196479173)"><path class="b-outline" fill="#A5ABB6" stroke="none" d="M 25 0.5 L 59.71064381477399 0.5 L 59.71064381477399 -0.5 L 25 -0.5 Z M 95.06220631477399 0.5 L 129.77285012954798 0.5 L 129.77285012954798 3.5 L 136.77285012954798 0 L 129.77285012954798 -3.5 L 129.77285012954798 -0.5 L 95.06220631477399 -0.5 Z"/><text text-anchor="middle" pointer-events="none" font-size="8px" fill="#000000" x="77.38642506477399" y="3" font-family="Helvetica Neue, Helvetica, Arial, sans-serif">includes</text></g><g class="relationship" transform="translate(574.0292018703121 215.03850091129604) rotate(505.6623532192981)"><path class="b-outline" fill="#A5ABB6" stroke="none" d="M 25 0.5 L 51.83542523422699 0.5 L 51.83542523422699 -0.5 L 25 -0.5 Z M 87.18698773422699 0.5 L 114.02241296845398 0.5 L 114.02241296845398 3.5 L 121.02241296845398 0 L 114.02241296845398 -3.5 L 114.02241296845398 -0.5 L 87.18698773422699 -0.5 Z"/><text text-anchor="middle" pointer-events="none" font-size="8px" fill="#000000" x="69.51120648422699" y="3" transform="rotate(180 69.51120648422699 0)" font-family="Helvetica Neue, Helvetica, Arial, sans-serif">includes</text></g><g class="relationship" transform="translate(574.0292018703121 215.03850091129604) rotate(283.21841437623146)"><path class="b-outline" fill="#A5ABB6" stroke="none" d="M 25 0.5 L 52.60200000198468 0.5 L 52.60200000198468 -0.5 L 25 -0.5 Z M 87.95356250198468 0.5 L 115.55556250396936 0.5 L 115.55556250396936 3.5 L 122.55556250396936 0 L 115.55556250396936 -3.5 L 115.55556250396936 -0.5 L 87.95356250198468 -0.5 Z"/><text text-anchor="middle" pointer-events="none" font-size="8px" fill="#000000" x="70.27778125198468" y="3" font-family="Helvetica Neue, Helvetica, Arial, sans-serif">includes</text></g><g class="relationship" transform="translate(574.0292018703121 215.03850091129604) rotate(321.28090727260167)"><path class="b-outline" fill="#A5ABB6" stroke="none" d="M 25 0.5 L 56.684058696422596 0.5 L 56.684058696422596 -0.5 L 25 -0.5 Z M 92.0356211964226 0.5 L 123.71967989284519 0.5 L 123.71967989284519 3.5 L 130.7196798928452 0 L 123.71967989284519 -3.5 L 123.71967989284519 -0.5 L 92.0356211964226 -0.5 Z"/><text text-anchor="middle" pointer-events="none" font-size="8px" fill="#000000" x="74.3598399464226" y="3" font-family="Helvetica Neue, Helvetica, Arial, sans-serif">includes</text></g><g class="relationship" transform="translate(375.9254178316987 -207.1643899870055) rotate(264.02234931994957)"><path class="b-outline" fill="#A5ABB6" stroke="none" d="M 25 0.5 L 83.04403931891065 0.5 L 83.04403931891065 -0.5 L 25 -0.5 Z M 118.39560181891065 0.5 L 176.4396411378213 0.5 L 176.4396411378213 3.5 L 183.4396411378213 0 L 176.4396411378213 -3.5 L 176.4396411378213 -0.5 L 118.39560181891065 -0.5 Z"/><text text-anchor="middle" pointer-events="none" font-size="8px" fill="#000000" x="100.71982056891065" y="3" transform="rotate(180 100.71982056891065 0)" font-family="Helvetica Neue, Helvetica, Arial, sans-serif">includes</text></g><g class="relationship" transform="translate(375.9254178316987 -207.1643899870055) rotate(387.28684665367496)"><path class="b-outline" fill="#A5ABB6" stroke="none" d="M 25 0.5 L 57.026832710967284 0.5 L 57.026832710967284 -0.5 L 25 -0.5 Z M 92.37839521096728 0.5 L 124.40522792193457 0.5 L 124.40522792193457 3.5 L 131.40522792193457 0 L 124.40522792193457 -3.5 L 124.40522792193457 -0.5 L 92.37839521096728 -0.5 Z"/><text text-anchor="middle" pointer-events="none" font-size="8px" fill="#000000" x="74.70261396096728" y="3" font-family="Helvetica Neue, Helvetica, Arial, sans-serif">includes</text></g><g class="relationship" transform="translate(375.9254178316987 -207.1643899870055) rotate(354.71291577509055)"><path class="b-outline" fill="#A5ABB6" stroke="none" d="M 25 0.5 L 71.06249966445283 0.5 L 71.06249966445283 -0.5 L 25 -0.5 Z M 106.41406216445283 0.5 L 152.47656182890566 0.5 L 152.47656182890566 3.5 L 159.47656182890566 0 L 152.47656182890566 -3.5 L 152.47656182890566 -0.5 L 106.41406216445283 -0.5 Z"/><text text-anchor="middle" pointer-events="none" font-size="8px" fill="#000000" x="88.73828091445283" y="3" font-family="Helvetica Neue, Helvetica, Arial, sans-serif">includes</text></g><g class="relationship" transform="translate(375.9254178316987 -207.1643899870055) rotate(235.8138919122748)"><path class="b-outline" fill="#A5ABB6" stroke="none" d="M 25 0.5 L 77.20651244764133 0.5 L 77.20651244764133 -0.5 L 25 -0.5 Z M 112.55807494764133 0.5 L 164.76458739528266 0.5 L 164.76458739528266 3.5 L 171.76458739528266 0 L 164.76458739528266 -3.5 L 164.76458739528266 -0.5 L 112.55807494764133 -0.5 Z"/><text text-anchor="middle" pointer-events="none" font-size="8px" fill="#000000" x="94.88229369764133" y="3" transform="rotate(180 94.88229369764133 0)" font-family="Helvetica Neue, Helvetica, Arial, sans-serif">includes</text></g><g class="relationship" transform="translate(285.9343390167918 170.89139164120326) rotate(515.3354573791926)"><path class="b-outline" fill="#A5ABB6" stroke="none" d="M 25 0.5 L 52.753376347006366 0.5 L 52.753376347006366 -0.5 L 25 -0.5 Z M 88.10493884700637 0.5 L 115.85831519401273 0.5 L 115.85831519401273 3.5 L 122.85831519401273 0 L 115.85831519401273 -3.5 L 115.85831519401273 -0.5 L 88.10493884700637 -0.5 Z"/><text text-anchor="middle" pointer-events="none" font-size="8px" fill="#000000" x="70.42915759700637" y="3" transform="rotate(180 70.42915759700637 0)" font-family="Helvetica Neue, Helvetica, Arial, sans-serif">includes</text></g><g class="relationship" transform="translate(334.04340454910107 -297.62126309780194) rotate(379.59019288141246)"><path class="b-outline" fill="#A5ABB6" stroke="none" d="M 25 0.5 L 48.1845507092748 0.5 L 48.1845507092748 -0.5 L 25 -0.5 Z M 83.5361132092748 0.5 L 106.7206639185496 0.5 L 106.7206639185496 3.5 L 113.7206639185496 0 L 106.7206639185496 -3.5 L 106.7206639185496 -0.5 L 83.5361132092748 -0.5 Z"/><text text-anchor="middle" pointer-events="none" font-size="8px" fill="#000000" x="65.8603319592748" y="3" font-family="Helvetica Neue, Helvetica, Arial, sans-serif">includes</text></g><g class="relationship" transform="translate(334.04340454910107 -297.62126309780194) rotate(285.89462494109114)"><path class="b-outline" fill="#A5ABB6" stroke="none" d="M 25 0.5 L 86.86566778148148 0.5 L 86.86566778148148 -0.5 L 25 -0.5 Z M 122.21723028148148 0.5 L 184.08289806296295 0.5 L 184.08289806296295 3.5 L 191.08289806296295 0 L 184.08289806296295 -3.5 L 184.08289806296295 -0.5 L 122.21723028148148 -0.5 Z"/><text text-anchor="middle" pointer-events="none" font-size="8px" fill="#000000" x="104.54144903148148" y="3" font-family="Helvetica Neue, Helvetica, Arial, sans-serif">includes</text></g><g class="relationship" transform="translate(334.04340454910107 -297.62126309780194) rotate(345.50257899097255)"><path class="b-outline" fill="#A5ABB6" stroke="none" d="M 25 0.5 L 66.83839699222779 0.5 L 66.83839699222779 -0.5 L 25 -0.5 Z M 102.18995949222779 0.5 L 144.02835648445557 0.5 L 144.02835648445557 3.5 L 151.02835648445557 0 L 144.02835648445557 -3.5 L 144.02835648445557 -0.5 L 102.18995949222779 -0.5 Z"/><text text-anchor="middle" pointer-events="none" font-size="8px" fill="#000000" x="84.51417824222779" y="3" font-family="Helvetica Neue, Helvetica, Arial, sans-serif">includes</text></g><g class="relationship" transform="translate(334.04340454910107 -297.62126309780194) rotate(312.60247442559876)"><path class="b-outline" fill="#A5ABB6" stroke="none" d="M 25 0.5 L 66.15480472834604 0.5 L 66.15480472834604 -0.5 L 25 -0.5 Z M 101.50636722834604 0.5 L 142.66117195669207 0.5 L 142.66117195669207 3.5 L 149.66117195669207 0 L 142.66117195669207 -3.5 L 142.66117195669207 -0.5 L 101.50636722834604 -0.5 Z"/><text text-anchor="middle" pointer-events="none" font-size="8px" fill="#000000" x="83.83058597834604" y="3" font-family="Helvetica Neue, Helvetica, Arial, sans-serif">includes</text></g><g class="relationship" transform="translate(334.04340454910107 -297.62126309780194) rotate(523.2968702339704)"><path class="b-outline" fill="#A5ABB6" stroke="none" d="M 25 0.5 L 101.52992292375588 0.5 L 101.52992292375588 -0.5 L 25 -0.5 Z M 136.88148542375586 0.5 L 213.41140834751175 0.5 L 213.41140834751175 3.5 L 220.41140834751175 0 L 213.41140834751175 -3.5 L 213.41140834751175 -0.5 L 136.88148542375586 -0.5 Z"/><text text-anchor="middle" pointer-events="none" font-size="8px" fill="#000000" x="119.20570417375588" y="3" transform="rotate(180 119.20570417375588 0)" font-family="Helvetica Neue, Helvetica, Arial, sans-serif">includes</text></g><g class="relationship" transform="translate(-28.08755772394166 -168.66000559930342) rotate(293.9097411677138)"><path class="b-outline" fill="#A5ABB6" stroke="none" d="M 25 0.5 L 81.19779750338171 0.5 L 81.19779750338171 -0.5 L 25 -0.5 Z M 116.54936000338171 0.5 L 172.74715750676341 0.5 L 172.74715750676341 3.5 L 179.74715750676341 0 L 172.74715750676341 -3.5 L 172.74715750676341 -0.5 L 116.54936000338171 -0.5 Z"/><text text-anchor="middle" pointer-events="none" font-size="8px" fill="#000000" x="98.87357875338171" y="3" font-family="Helvetica Neue, Helvetica, Arial, sans-serif">includes</text></g><g class="relationship" transform="translate(-28.08755772394166 -168.66000559930342) rotate(477.74197440586937)"><path class="b-outline" fill="#A5ABB6" stroke="none" d="M 25 0.5 L 55.14072955894146 0.5 L 55.14072955894146 -0.5 L 25 -0.5 Z M 90.49229205894146 0.5 L 120.63302161788292 0.5 L 120.63302161788292 3.5 L 127.63302161788292 0 L 120.63302161788292 -3.5 L 120.63302161788292 -0.5 L 90.49229205894146 -0.5 Z"/><text text-anchor="middle" pointer-events="none" font-size="8px" fill="#000000" x="72.81651080894146" y="3" transform="rotate(180 72.81651080894146 0)" font-family="Helvetica Neue, Helvetica, Arial, sans-serif">includes</text></g><g class="relationship" transform="translate(-28.08755772394166 -168.66000559930342) rotate(439.77363386015617)"><path class="b-outline" fill="#A5ABB6" stroke="none" d="M 25 0.5 L 55.675262743747425 0.5 L 55.675262743747425 -0.5 L 25 -0.5 Z M 91.02682524374742 0.5 L 121.70208798749485 0.5 L 121.70208798749485 3.5 L 128.70208798749485 0 L 121.70208798749485 -3.5 L 121.70208798749485 -0.5 L 91.02682524374742 -0.5 Z"/><text text-anchor="middle" pointer-events="none" font-size="8px" fill="#000000" x="73.35104399374742" y="3" font-family="Helvetica Neue, Helvetica, Arial, sans-serif">includes</text></g><g class="relationship" transform="translate(188.27145691377305 -119.84045247352076) rotate(217.75410209025938)"><path class="b-outline" fill="#A5ABB6" stroke="none" d="M 25 0.5 L 95.67251683448869 0.5 L 95.67251683448869 -0.5 L 25 -0.5 Z M 131.0240793344887 0.5 L 201.69659616897738 0.5 L 201.69659616897738 3.5 L 208.69659616897738 0 L 201.69659616897738 -3.5 L 201.69659616897738 -0.5 L 131.0240793344887 -0.5 Z"/><text text-anchor="middle" pointer-events="none" font-size="8px" fill="#000000" x="113.34829808448869" y="3" transform="rotate(180 113.34829808448869 0)" font-family="Helvetica Neue, Helvetica, Arial, sans-serif">includes</text></g><g class="relationship" transform="translate(188.27145691377305 -119.84045247352076) rotate(373.8624759347737)"><path class="b-outline" fill="#A5ABB6" stroke="none" d="M 25 0.5 L 52.71997342015203 0.5 L 52.71997342015203 -0.5 L 25 -0.5 Z M 88.07153592015203 0.5 L 115.79150934030406 0.5 L 115.79150934030406 3.5 L 122.79150934030406 0 L 115.79150934030406 -3.5 L 115.79150934030406 -0.5 L 88.07153592015203 -0.5 Z"/><text text-anchor="middle" pointer-events="none" font-size="8px" fill="#000000" x="70.39575467015203" y="3" font-family="Helvetica Neue, Helvetica, Arial, sans-serif">includes</text></g><g class="relationship" transform="translate(-28.08755772394166 -168.66000559930342) rotate(401.0494406036938)"><path class="b-outline" fill="#A5ABB6" stroke="none" d="M 25 0.5 L 52.07425011415597 0.5 L 52.07425011415597 -0.5 L 25 -0.5 Z M 87.42581261415597 0.5 L 114.50006272831195 0.5 L 114.50006272831195 3.5 L 121.50006272831195 0 L 114.50006272831195 -3.5 L 114.50006272831195 -0.5 L 87.42581261415597 -0.5 Z"/><text text-anchor="middle" pointer-events="none" font-size="8px" fill="#000000" x="69.75003136415597" y="3" font-family="Helvetica Neue, Helvetica, Arial, sans-serif">includes</text></g><g class="relationship" transform="translate(-200.4195434452227 657.8948533486306) rotate(486.6291054296027)"><path class="b-outline" fill="#A5ABB6" stroke="none" d="M 25 0.5 L 55.61079018454555 0.5 L 55.61079018454555 -0.5 L 25 -0.5 Z M 90.51313393454555 0.5 L 121.1239241190911 0.5 L 121.1239241190911 3.5 L 128.1239241190911 0 L 121.1239241190911 -3.5 L 121.1239241190911 -0.5 L 90.51313393454555 -0.5 Z"/><text text-anchor="middle" pointer-events="none" font-size="8px" fill="#000000" x="73.06196205954555" y="3" transform="rotate(180 73.06196205954555 0)" font-family="Helvetica Neue, Helvetica, Arial, sans-serif">requires</text></g><g class="relationship" transform="translate(-200.4195434452227 657.8948533486306) rotate(523.9114768583944)"><path class="b-outline" fill="#A5ABB6" stroke="none" d="M 25 0.5 L 57.82482454287954 0.5 L 57.82482454287954 -0.5 L 25 -0.5 Z M 92.72716829287954 0.5 L 125.55199283575908 0.5 L 125.55199283575908 3.5 L 132.55199283575908 0 L 125.55199283575908 -3.5 L 125.55199283575908 -0.5 L 92.72716829287954 -0.5 Z"/><text text-anchor="middle" pointer-events="none" font-size="8px" fill="#000000" x="75.27599641787954" y="3" transform="rotate(180 75.27599641787954 0)" font-family="Helvetica Neue, Helvetica, Arial, sans-serif">requires</text></g><g class="relationship" transform="translate(-200.4195434452227 657.8948533486306) rotate(448.30018746201665)"><path class="b-outline" fill="#A5ABB6" stroke="none" d="M 25 0.5 L 54.090951118937284 0.5 L 54.090951118937284 -0.5 L 25 -0.5 Z M 88.99329486893728 0.5 L 118.08424598787457 0.5 L 118.08424598787457 3.5 L 125.08424598787457 0 L 118.08424598787457 -3.5 L 118.08424598787457 -0.5 L 88.99329486893728 -0.5 Z"/><text text-anchor="middle" pointer-events="none" font-size="8px" fill="#000000" x="71.54212299393728" y="3" font-family="Helvetica Neue, Helvetica, Arial, sans-serif">requires</text></g><g class="relationship" transform="translate(-200.4195434452227 657.8948533486306) rotate(277.50449401991057)"><path class="b-outline" fill="#A5ABB6" stroke="none" d="M 25 0.5 L 51.47352719156642 0.5 L 51.47352719156642 -0.5 L 25 -0.5 Z M 86.37587094156642 0.5 L 112.84939813313284 0.5 L 112.84939813313284 3.5 L 119.84939813313284 0 L 112.84939813313284 -3.5 L 112.84939813313284 -0.5 L 86.37587094156642 -0.5 Z"/><text text-anchor="middle" pointer-events="none" font-size="8px" fill="#000000" x="68.92469906656642" y="3" font-family="Helvetica Neue, Helvetica, Arial, sans-serif">requires</text></g><g class="relationship" transform="translate(-200.4195434452227 657.8948533486306) rotate(345.89002803512915)"><path class="b-outline" fill="#A5ABB6" stroke="none" d="M 25 0.5 L 47.41732644611382 0.5 L 47.41732644611382 -0.5 L 25 -0.5 Z M 82.31967019611382 0.5 L 104.73699664222764 0.5 L 104.73699664222764 3.5 L 111.73699664222764 0 L 104.73699664222764 -3.5 L 104.73699664222764 -0.5 L 82.31967019611382 -0.5 Z"/><text text-anchor="middle" pointer-events="none" font-size="8px" fill="#000000" x="64.86849832111382" y="3" font-family="Helvetica Neue, Helvetica, Arial, sans-serif">requires</text></g><g class="relationship" transform="translate(-200.4195434452227 657.8948533486306) rotate(238.22409669497296)"><path class="b-outline" fill="#A5ABB6" stroke="none" d="M 25 0.5 L 54.59628372654167 0.5 L 54.59628372654167 -0.5 L 25 -0.5 Z M 89.49862747654167 0.5 L 119.09491120308334 0.5 L 119.09491120308334 3.5 L 126.09491120308334 0 L 119.09491120308334 -3.5 L 119.09491120308334 -0.5 L 89.49862747654167 -0.5 Z"/><text text-anchor="middle" pointer-events="none" font-size="8px" fill="#000000" x="72.04745560154167" y="3" transform="rotate(180 72.04745560154167 0)" font-family="Helvetica Neue, Helvetica, Arial, sans-serif">requires</text></g><g class="relationship" transform="translate(-14.365440145994576 -427.5155964402817) rotate(443.80495060456747)"><path class="b-outline" fill="#A5ABB6" stroke="none" d="M 25 0.5 L 61.60202721476564 0.5 L 61.60202721476564 -0.5 L 25 -0.5 Z M 96.95358971476564 0.5 L 133.55561692953128 0.5 L 133.55561692953128 3.5 L 140.55561692953128 0 L 133.55561692953128 -3.5 L 133.55561692953128 -0.5 L 96.95358971476564 -0.5 Z"/><text text-anchor="middle" pointer-events="none" font-size="8px" fill="#000000" x="79.27780846476564" y="3" font-family="Helvetica Neue, Helvetica, Arial, sans-serif">includes</text></g><g class="relationship" transform="translate(405.0870582611508 -626.7760085182581) rotate(455.58522404095)"><path class="b-outline" fill="#A5ABB6" stroke="none" d="M 25 0.5 L 39.78027739949266 0.5 L 39.78027739949266 -0.5 L 25 -0.5 Z M 75.13183989949266 0.5 L 89.91211729898532 0.5 L 89.91211729898532 3.5 L 96.91211729898532 0 L 89.91211729898532 -3.5 L 89.91211729898532 -0.5 L 75.13183989949266 -0.5 Z"/><text text-anchor="middle" pointer-events="none" font-size="8px" fill="#000000" x="57.45605864949266" y="3" transform="rotate(180 57.45605864949266 0)" font-family="Helvetica Neue, Helvetica, Arial, sans-serif">includes</text></g><g class="relationship" transform="translate(405.0870582611508 -626.7760085182581) rotate(463.4741357641189)"><path class="b-outline" fill="#A5ABB6" stroke="none" d="M 25 0.5 L 87.9814229870745 0.5 L 87.9814229870745 -0.5 L 25 -0.5 Z M 123.3329854870745 0.5 L 186.314408474149 0.5 L 186.314408474149 3.5 L 193.314408474149 0 L 186.314408474149 -3.5 L 186.314408474149 -0.5 L 123.3329854870745 -0.5 Z"/><text text-anchor="middle" pointer-events="none" font-size="8px" fill="#000000" x="105.6572042370745" y="3" transform="rotate(180 105.6572042370745 0)" font-family="Helvetica Neue, Helvetica, Arial, sans-serif">includes</text></g><g class="relationship" transform="translate(695.5251241051112 117.6354230017873) rotate(194.79892455684978)"><path class="b-outline" fill="#A5ABB6" stroke="none" d="M 25 0.5 L 81.96881446311055 0.5 L 81.96881446311055 -0.5 L 25 -0.5 Z M 117.32037696311055 0.5 L 174.2891914262211 0.5 L 174.2891914262211 3.5 L 181.2891914262211 0 L 174.2891914262211 -3.5 L 174.2891914262211 -0.5 L 117.32037696311055 -0.5 Z"/><text text-anchor="middle" pointer-events="none" font-size="8px" fill="#000000" x="99.64459571311055" y="3" transform="rotate(180 99.64459571311055 0)" font-family="Helvetica Neue, Helvetica, Arial, sans-serif">includes</text></g><g class="relationship" transform="translate(157.08660253997706 -510.16021297769447) rotate(412.3258424552802)"><path class="b-outline" fill="#A5ABB6" stroke="none" d="M 25 0.5 L 67.40853526133344 0.5 L 67.40853526133344 -0.5 L 25 -0.5 Z M 102.76009776133344 0.5 L 145.16863302266688 0.5 L 145.16863302266688 3.5 L 152.16863302266688 0 L 145.16863302266688 -3.5 L 145.16863302266688 -0.5 L 102.76009776133344 -0.5 Z"/><text text-anchor="middle" pointer-events="none" font-size="8px" fill="#000000" x="85.08431651133344" y="3" font-family="Helvetica Neue, Helvetica, Arial, sans-serif">includes</text></g><g class="relationship" transform="translate(157.08660253997706 -510.16021297769447) rotate(483.51195363207154)"><path class="b-outline" fill="#A5ABB6" stroke="none" d="M 25 0.5 L 71.36970111614545 0.5 L 71.36970111614545 -0.5 L 25 -0.5 Z M 106.72126361614545 0.5 L 153.0909647322909 0.5 L 153.0909647322909 3.5 L 160.0909647322909 0 L 153.0909647322909 -3.5 L 153.0909647322909 -0.5 L 106.72126361614545 -0.5 Z"/><text text-anchor="middle" pointer-events="none" font-size="8px" fill="#000000" x="89.04548236614545" y="3" transform="rotate(180 89.04548236614545 0)" font-family="Helvetica Neue, Helvetica, Arial, sans-serif">includes</text></g><g class="relationship" transform="translate(-200.4195434452227 657.8948533486306) rotate(200.6713251348271)"><path class="b-outline" fill="#A5ABB6" stroke="none" d="M 25 0.5 L 57.98062876971106 0.5 L 57.98062876971106 -0.5 L 25 -0.5 Z M 92.88297251971106 0.5 L 125.86360128942212 0.5 L 125.86360128942212 3.5 L 132.86360128942212 0 L 125.86360128942212 -3.5 L 125.86360128942212 -0.5 L 92.88297251971106 -0.5 Z"/><text text-anchor="middle" pointer-events="none" font-size="8px" fill="#000000" x="75.43180064471106" y="3" transform="rotate(180 75.43180064471106 0)" font-family="Helvetica Neue, Helvetica, Arial, sans-serif">requires</text></g><g class="relationship" transform="translate(-453.35391702411937 -17.44773950397647) rotate(277.9074246803173)"><path class="b-outline" fill="#A5ABB6" stroke="none" d="M 25 0.5 L 147.11517322217213 0.5 L 147.11517322217213 -0.5 L 25 -0.5 Z M 182.46673572217213 0.5 L 304.58190894434426 0.5 L 304.58190894434426 3.5 L 311.58190894434426 0 L 304.58190894434426 -3.5 L 304.58190894434426 -0.5 L 182.46673572217213 -0.5 Z"/><text text-anchor="middle" pointer-events="none" font-size="8px" fill="#000000" x="164.79095447217213" y="3" font-family="Helvetica Neue, Helvetica, Arial, sans-serif">includes</text></g><g class="relationship" transform="translate(-407.0493676665958 -350.82930788683643) rotate(307.14132955678434)"><path class="b-outline" fill="#A5ABB6" stroke="none" d="M 25 0.5 L 61.103252989633006 0.5 L 61.103252989633006 -0.5 L 25 -0.5 Z M 96.454815489633 0.5 L 132.558068479266 0.5 L 132.558068479266 3.5 L 139.558068479266 0 L 132.558068479266 -3.5 L 132.558068479266 -0.5 L 96.454815489633 -0.5 Z"/><text text-anchor="middle" pointer-events="none" font-size="8px" fill="#000000" x="78.779034239633" y="3" font-family="Helvetica Neue, Helvetica, Arial, sans-serif">includes</text></g><g class="relationship" transform="translate(-407.0493676665958 -350.82930788683643) rotate(274.2883233318608)"><path class="b-outline" fill="#A5ABB6" stroke="none" d="M 25 0.5 L 68.74537701738663 0.5 L 68.74537701738663 -0.5 L 25 -0.5 Z M 104.09693951738663 0.5 L 147.84231653477326 0.5 L 147.84231653477326 3.5 L 154.84231653477326 0 L 147.84231653477326 -3.5 L 147.84231653477326 -0.5 L 104.09693951738663 -0.5 Z"/><text text-anchor="middle" pointer-events="none" font-size="8px" fill="#000000" x="86.42115826738663" y="3" font-family="Helvetica Neue, Helvetica, Arial, sans-serif">includes</text></g><g class="relationship" transform="translate(-407.0493676665958 -350.82930788683643) rotate(443.9263522179487)"><path class="b-outline" fill="#A5ABB6" stroke="none" d="M 25 0.5 L 50.26976742393151 0.5 L 50.26976742393151 -0.5 L 25 -0.5 Z M 85.62132992393151 0.5 L 110.89109734786302 0.5 L 110.89109734786302 3.5 L 117.89109734786302 0 L 110.89109734786302 -3.5 L 110.89109734786302 -0.5 L 85.62132992393151 -0.5 Z"/><text text-anchor="middle" pointer-events="none" font-size="8px" fill="#000000" x="67.94554867393151" y="3" font-family="Helvetica Neue, Helvetica, Arial, sans-serif">includes</text></g><g class="relationship" transform="translate(-407.0493676665958 -350.82930788683643) rotate(245.34585961453053)"><path class="b-outline" fill="#A5ABB6" stroke="none" d="M 25 0.5 L 34.24763218406279 0.5 L 34.24763218406279 -0.5 L 25 -0.5 Z M 69.59919468406278 0.5 L 78.84682686812558 0.5 L 78.84682686812558 3.5 L 85.84682686812558 0 L 78.84682686812558 -3.5 L 78.84682686812558 -0.5 L 69.59919468406278 -0.5 Z"/><text text-anchor="middle" pointer-events="none" font-size="8px" fill="#000000" x="51.92341343406279" y="3" transform="rotate(180 51.92341343406279 0)" font-family="Helvetica Neue, Helvetica, Arial, sans-serif">includes</text></g><g class="relationship" transform="translate(-407.0493676665958 -350.82930788683643) rotate(245.6282515644582)"><path class="b-outline" fill="#A5ABB6" stroke="none" d="M 25 0.5 L 82.5389171264376 0.5 L 82.5389171264376 -0.5 L 25 -0.5 Z M 117.8904796264376 0.5 L 175.4293967528752 0.5 L 175.4293967528752 3.5 L 182.4293967528752 0 L 175.4293967528752 -3.5 L 175.4293967528752 -0.5 L 117.8904796264376 -0.5 Z"/><text text-anchor="middle" pointer-events="none" font-size="8px" fill="#000000" x="100.2146983764376" y="3" transform="rotate(180 100.2146983764376 0)" font-family="Helvetica Neue, Helvetica, Arial, sans-serif">includes</text></g><g class="relationship" transform="translate(-407.0493676665958 -350.82930788683643) rotate(343.6301137408161)"><path class="b-outline" fill="#A5ABB6" stroke="none" d="M 25 0.5 L 52.37696302364026 0.5 L 52.37696302364026 -0.5 L 25 -0.5 Z M 87.72852552364026 0.5 L 115.10548854728052 0.5 L 115.10548854728052 3.5 L 122.10548854728052 0 L 115.10548854728052 -3.5 L 115.10548854728052 -0.5 L 87.72852552364026 -0.5 Z"/><text text-anchor="middle" pointer-events="none" font-size="8px" fill="#000000" x="70.05274427364026" y="3" font-family="Helvetica Neue, Helvetica, Arial, sans-serif">includes</text></g><g class="relationship" transform="translate(-407.0493676665958 -350.82930788683643) rotate(217.32875703620567)"><path class="b-outline" fill="#A5ABB6" stroke="none" d="M 25 0.5 L 69.97849995288918 0.5 L 69.97849995288918 -0.5 L 25 -0.5 Z M 105.33006245288918 0.5 L 150.30856240577836 0.5 L 150.30856240577836 3.5 L 157.30856240577836 0 L 150.30856240577836 -3.5 L 150.30856240577836 -0.5 L 105.33006245288918 -0.5 Z"/><text text-anchor="middle" pointer-events="none" font-size="8px" fill="#000000" x="87.65428120288918" y="3" transform="rotate(180 87.65428120288918 0)" font-family="Helvetica Neue, Helvetica, Arial, sans-serif">includes</text></g><g class="relationship" transform="translate(-407.0493676665958 -350.82930788683643) rotate(188.0748064454931)"><path class="b-outline" fill="#A5ABB6" stroke="none" d="M 25 0.5 L 80.7039876097904 0.5 L 80.7039876097904 -0.5 L 25 -0.5 Z M 116.0555501097904 0.5 L 171.7595377195808 0.5 L 171.7595377195808 3.5 L 178.7595377195808 0 L 171.7595377195808 -3.5 L 171.7595377195808 -0.5 L 116.0555501097904 -0.5 Z"/><text text-anchor="middle" pointer-events="none" font-size="8px" fill="#000000" x="98.3797688597904" y="3" transform="rotate(180 98.3797688597904 0)" font-family="Helvetica Neue, Helvetica, Arial, sans-serif">includes</text></g><g class="relationship" transform="translate(-407.0493676665958 -350.82930788683643) rotate(395.2724371062226)"><path class="b-outline" fill="#A5ABB6" stroke="none" d="M 25 0.5 L 82.33376618646284 0.5 L 82.33376618646284 -0.5 L 25 -0.5 Z M 117.68532868646284 0.5 L 175.01909487292568 0.5 L 175.01909487292568 3.5 L 182.01909487292568 0 L 175.01909487292568 -3.5 L 175.01909487292568 -0.5 L 117.68532868646284 -0.5 Z"/><text text-anchor="middle" pointer-events="none" font-size="8px" fill="#000000" x="100.00954743646284" y="3" font-family="Helvetica Neue, Helvetica, Arial, sans-serif">includes</text></g><g class="relationship" transform="translate(-407.0493676665958 -350.82930788683643) rotate(368.1342769716605)"><path class="b-outline" fill="#A5ABB6" stroke="none" d="M 25 0.5 L 85.57436536732102 0.5 L 85.57436536732102 -0.5 L 25 -0.5 Z M 120.92592786732102 0.5 L 181.50029323464204 0.5 L 181.50029323464204 3.5 L 188.50029323464204 0 L 181.50029323464204 -3.5 L 181.50029323464204 -0.5 L 120.92592786732102 -0.5 Z"/><text text-anchor="middle" pointer-events="none" font-size="8px" fill="#000000" x="103.25014661732102" y="3" font-family="Helvetica Neue, Helvetica, Arial, sans-serif">includes</text></g><g class="relationship" transform="translate(-407.0493676665958 -350.82930788683643) rotate(190.9983519109042)"><path class="b-outline" fill="#A5ABB6" stroke="none" d="M 25 0.5 L 32.484071004339576 0.5 L 32.484071004339576 -0.5 L 25 -0.5 Z M 67.83563350433957 0.5 L 75.31970450867915 0.5 L 75.31970450867915 3.5 L 82.31970450867915 0 L 75.31970450867915 -3.5 L 75.31970450867915 -0.5 L 67.83563350433957 -0.5 Z"/><text text-anchor="middle" pointer-events="none" font-size="8px" fill="#000000" x="50.159852254339576" y="3" transform="rotate(180 50.159852254339576 0)" font-family="Helvetica Neue, Helvetica, Arial, sans-serif">includes</text></g><g class="relationship" transform="translate(-407.0493676665958 -350.82930788683643) rotate(518.9510956840782)"><path class="b-outline" fill="#A5ABB6" stroke="none" d="M 25 0.5 L 64.51042134014553 0.5 L 64.51042134014553 -0.5 L 25 -0.5 Z M 99.86198384014553 0.5 L 139.37240518029105 0.5 L 139.37240518029105 3.5 L 146.37240518029105 0 L 139.37240518029105 -3.5 L 139.37240518029105 -0.5 L 99.86198384014553 -0.5 Z"/><text text-anchor="middle" pointer-events="none" font-size="8px" fill="#000000" x="82.18620259014553" y="3" transform="rotate(180 82.18620259014553 0)" font-family="Helvetica Neue, Helvetica, Arial, sans-serif">includes</text></g><g class="relationship" transform="translate(-407.0493676665958 -350.82930788683643) rotate(483.68997488059256)"><path class="b-outline" fill="#A5ABB6" stroke="none" d="M 25 0.5 L 53.488182363400355 0.5 L 53.488182363400355 -0.5 L 25 -0.5 Z M 88.83974486340036 0.5 L 117.32792722680071 0.5 L 117.32792722680071 3.5 L 124.32792722680071 0 L 117.32792722680071 -3.5 L 117.32792722680071 -0.5 L 88.83974486340036 -0.5 Z"/><text text-anchor="middle" pointer-events="none" font-size="8px" fill="#000000" x="71.16396361340036" y="3" transform="rotate(180 71.16396361340036 0)" font-family="Helvetica Neue, Helvetica, Arial, sans-serif">includes</text></g><g class="relationship" transform="translate(-453.35391702411937 -17.44773950397647) rotate(228.23443286791627)"><path class="b-outline" fill="#A5ABB6" stroke="none" d="M 25 0.5 L 53.125905272829456 0.5 L 53.125905272829456 -0.5 L 25 -0.5 Z M 88.47746777282946 0.5 L 116.60337304565891 0.5 L 116.60337304565891 3.5 L 123.60337304565891 0 L 116.60337304565891 -3.5 L 116.60337304565891 -0.5 L 88.47746777282946 -0.5 Z"/><text text-anchor="middle" pointer-events="none" font-size="8px" fill="#000000" x="70.80168652282946" y="3" transform="rotate(180 70.80168652282946 0)" font-family="Helvetica Neue, Helvetica, Arial, sans-serif">includes</text></g><g class="relationship" transform="translate(-453.35391702411937 -17.44773950397647) rotate(338.4373642110445)"><path class="b-outline" fill="#A5ABB6" stroke="none" d="M 25 0.5 L 128.72922877701674 0.5 L 128.72922877701674 -0.5 L 25 -0.5 Z M 164.08079127701674 0.5 L 267.8100200540335 0.5 L 267.8100200540335 3.5 L 274.8100200540335 0 L 267.8100200540335 -3.5 L 267.8100200540335 -0.5 L 164.08079127701674 -0.5 Z"/><text text-anchor="middle" pointer-events="none" font-size="8px" fill="#000000" x="146.40501002701674" y="3" font-family="Helvetica Neue, Helvetica, Arial, sans-serif">includes</text></g><g class="relationship" transform="translate(-174.52569567603118 -127.6333606378681) rotate(322.7664502089211)"><path class="b-outline" fill="#A5ABB6" stroke="none" d="M 25 0.5 L 90.62486895609315 0.5 L 90.62486895609315 -0.5 L 25 -0.5 Z M 125.97643145609315 0.5 L 191.6013004121863 0.5 L 191.6013004121863 3.5 L 198.6013004121863 0 L 191.6013004121863 -3.5 L 191.6013004121863 -0.5 L 125.97643145609315 -0.5 Z"/><text text-anchor="middle" pointer-events="none" font-size="8px" fill="#000000" x="108.30065020609315" y="3" font-family="Helvetica Neue, Helvetica, Arial, sans-serif">includes</text></g><g class="relationship" transform="translate(-174.52569567603118 -127.6333606378681) rotate(340.01791785911314)"><path class="b-outline" fill="#A5ABB6" stroke="none" d="M 25 0.5 L 124.34056329857535 0.5 L 124.34056329857535 -0.5 L 25 -0.5 Z M 159.69212579857535 0.5 L 259.0326890971507 0.5 L 259.0326890971507 3.5 L 266.0326890971507 0 L 259.0326890971507 -3.5 L 259.0326890971507 -0.5 L 159.69212579857535 -0.5 Z"/><text text-anchor="middle" pointer-events="none" font-size="8px" fill="#000000" x="142.01634454857535" y="3" font-family="Helvetica Neue, Helvetica, Arial, sans-serif">includes</text></g><g class="relationship" transform="translate(-453.35391702411937 -17.44773950397647) rotate(496.12154276610397)"><path class="b-outline" fill="#A5ABB6" stroke="none" d="M 25 0.5 L 71.0208974683315 0.5 L 71.0208974683315 -0.5 L 25 -0.5 Z M 106.3724599683315 0.5 L 152.393357436663 0.5 L 152.393357436663 3.5 L 159.393357436663 0 L 152.393357436663 -3.5 L 152.393357436663 -0.5 L 106.3724599683315 -0.5 Z"/><text text-anchor="middle" pointer-events="none" font-size="8px" fill="#000000" x="88.6966787183315" y="3" transform="rotate(180 88.6966787183315 0)" font-family="Helvetica Neue, Helvetica, Arial, sans-serif">includes</text></g><g class="relationship" transform="translate(-453.35391702411937 -17.44773950397647) rotate(521.7471005732193)"><path class="b-outline" fill="#A5ABB6" stroke="none" d="M 25 0.5 L 33.141599673977545 0.5 L 33.141599673977545 -0.5 L 25 -0.5 Z M 68.49316217397754 0.5 L 76.63476184795509 0.5 L 76.63476184795509 3.5 L 83.63476184795509 0 L 76.63476184795509 -3.5 L 76.63476184795509 -0.5 L 68.49316217397754 -0.5 Z"/><text text-anchor="middle" pointer-events="none" font-size="8px" fill="#000000" x="50.817380923977545" y="3" transform="rotate(180 50.817380923977545 0)" font-family="Helvetica Neue, Helvetica, Arial, sans-serif">includes</text></g><g class="relationship" transform="translate(-453.35391702411937 -17.44773950397647) rotate(193.53971132928132)"><path class="b-outline" fill="#A5ABB6" stroke="none" d="M 25 0.5 L 65.56669359009699 0.5 L 65.56669359009699 -0.5 L 25 -0.5 Z M 100.91825609009699 0.5 L 141.48494968019398 0.5 L 141.48494968019398 3.5 L 148.48494968019398 0 L 141.48494968019398 -3.5 L 141.48494968019398 -0.5 L 100.91825609009699 -0.5 Z"/><text text-anchor="middle" pointer-events="none" font-size="8px" fill="#000000" x="83.24247484009699" y="3" transform="rotate(180 83.24247484009699 0)" font-family="Helvetica Neue, Helvetica, Arial, sans-serif">includes</text></g><g class="relationship" transform="translate(-238.035773605035 -231.2830379140793) rotate(376.6087092247724)"><path class="b-outline" fill="#A5ABB6" stroke="none" d="M 25 0.5 L 88.3686133212783 0.5 L 88.3686133212783 -0.5 L 25 -0.5 Z M 123.7201758212783 0.5 L 187.0887891425566 0.5 L 187.0887891425566 3.5 L 194.0887891425566 0 L 187.0887891425566 -3.5 L 187.0887891425566 -0.5 L 123.7201758212783 -0.5 Z"/><text text-anchor="middle" pointer-events="none" font-size="8px" fill="#000000" x="106.0443945712783" y="3" font-family="Helvetica Neue, Helvetica, Arial, sans-serif">includes</text></g><g class="relationship" transform="translate(-195.69706096671564 -320.62040747788524) rotate(402.19650763202867)"><path class="b-outline" fill="#A5ABB6" stroke="none" d="M 25 0.5 L 91.94462950375119 0.5 L 91.94462950375119 -0.5 L 25 -0.5 Z M 127.29619200375119 0.5 L 194.24082150750237 0.5 L 194.24082150750237 3.5 L 201.24082150750237 0 L 194.24082150750237 -3.5 L 194.24082150750237 -0.5 L 127.29619200375119 -0.5 Z"/><text text-anchor="middle" pointer-events="none" font-size="8px" fill="#000000" x="109.62041075375119" y="3" font-family="Helvetica Neue, Helvetica, Arial, sans-serif">includes</text></g><g class="relationship" transform="translate(-453.35391702411937 -17.44773950397647) rotate(357.59756486702133)"><path class="b-outline" fill="#A5ABB6" stroke="none" d="M 25 0.5 L 48.61703238152634 0.5 L 48.61703238152634 -0.5 L 25 -0.5 Z M 86.19125113152634 0.5 L 109.80828351305269 0.5 L 109.80828351305269 3.5 L 116.80828351305269 0 L 109.80828351305269 -3.5 L 109.80828351305269 -0.5 L 86.19125113152634 -0.5 Z"/><text text-anchor="middle" pointer-events="none" font-size="8px" fill="#000000" x="67.40414175652634" y="3" font-family="Helvetica Neue, Helvetica, Arial, sans-serif">excludes</text></g><g class="relationship" transform="translate(-453.35391702411937 -17.44773950397647) rotate(524.8181734367507)"><path class="b-outline" fill="#A5ABB6" stroke="none" d="M 25 0.5 L 80.28334072594681 0.5 L 80.28334072594681 -0.5 L 25 -0.5 Z M 117.85755947594681 0.5 L 173.14090020189363 0.5 L 173.14090020189363 3.5 L 180.14090020189363 0 L 173.14090020189363 -3.5 L 173.14090020189363 -0.5 L 117.85755947594681 -0.5 Z"/><text text-anchor="middle" pointer-events="none" font-size="8px" fill="#000000" x="99.07045010094681" y="3" transform="rotate(180 99.07045010094681 0)" font-family="Helvetica Neue, Helvetica, Arial, sans-serif">excludes</text></g><g class="relationship" transform="translate(-453.35391702411937 -17.44773950397647) rotate(464.7634547908064)"><path class="b-outline" fill="#A5ABB6" stroke="none" d="M 25 0.5 L 65.99272438820094 0.5 L 65.99272438820094 -0.5 L 25 -0.5 Z M 103.56694313820094 0.5 L 144.55966752640188 0.5 L 144.55966752640188 3.5 L 151.55966752640188 0 L 144.55966752640188 -3.5 L 144.55966752640188 -0.5 L 103.56694313820094 -0.5 Z"/><text text-anchor="middle" pointer-events="none" font-size="8px" fill="#000000" x="84.77983376320094" y="3" transform="rotate(180 84.77983376320094 0)" font-family="Helvetica Neue, Helvetica, Arial, sans-serif">excludes</text></g><g class="relationship" transform="translate(-453.35391702411937 -17.44773950397647) rotate(395.77054998882164)"><path class="b-outline" fill="#A5ABB6" stroke="none" d="M 25 0.5 L 56.663949154898745 0.5 L 56.663949154898745 -0.5 L 25 -0.5 Z M 94.23816790489875 0.5 L 125.90211705979749 0.5 L 125.90211705979749 3.5 L 132.9021170597975 0 L 125.90211705979749 -3.5 L 125.90211705979749 -0.5 L 94.23816790489875 -0.5 Z"/><text text-anchor="middle" pointer-events="none" font-size="8px" fill="#000000" x="75.45105852989875" y="3" font-family="Helvetica Neue, Helvetica, Arial, sans-serif">excludes</text></g><g class="relationship" transform="translate(-453.35391702411937 -17.44773950397647) rotate(431.4368832824692)"><path class="b-outline" fill="#A5ABB6" stroke="none" d="M 25 0.5 L 60.701203194190796 0.5 L 60.701203194190796 -0.5 L 25 -0.5 Z M 98.2754219441908 0.5 L 133.9766251383816 0.5 L 133.9766251383816 3.5 L 140.9766251383816 0 L 133.9766251383816 -3.5 L 133.9766251383816 -0.5 L 98.2754219441908 -0.5 Z"/><text text-anchor="middle" pointer-events="none" font-size="8px" fill="#000000" x="79.4883125691908" y="3" font-family="Helvetica Neue, Helvetica, Arial, sans-serif">excludes</text></g><g class="relationship" transform="translate(15.522364433490004 539.8591438125745) rotate(511.33860329887)"><path class="b-outline" fill="#A5ABB6" stroke="none" d="M 24.018736134675446,6.953439040707552 L 24.277555179777966,5.987513214418485 A 378.4879229396597 378.4879229396597 0 0 0 100.3269130274626,18.249448158977714 L 100.26902339975607,19.24777114829726 A 379.4879229396597 379.4879229396597 0 0 1 24.018736134675446,6.953439040707552 Z M 138.77490928800086,19.523667051386838 L 138.7313309016795,18.524617040503642 A 378.4879229396597 378.4879229396597 0 0 0 214.9485860458251,7.353677244678186 L 214.21373183424635,4.4450711717069815 L 221.85780925135438,6.123785096489627 L 215.92839166126345,11.231818675306458 L 215.1935374496847,8.323212602335254 A 379.4879229396597 379.4879229396597 0 0 1 138.77490928800086,19.523667051386838"/><text text-anchor="middle" pointer-events="none" font-size="8px" fill="#000000" x="119.5220470970707" y="22.374448641779168" transform="rotate(180 119.5220470970707 19.374448641779168)" font-family="Helvetica Neue, Helvetica, Arial, sans-serif">has_goal</text></g><g class="relationship" transform="translate(15.522364433490004 539.8591438125745) rotate(314.71466965308997)"><path class="b-outline" fill="#A5ABB6" stroke="none" d="M 24.018736134675446,6.953439040707552 L 24.277555179777966,5.987513214418485 A 465.30906569902623 465.30906569902623 0 0 0 122.6678219199548,21.320237114537804 L 122.62045430357605,22.31911463902145 A 466.30906569902623 466.30906569902623 0 0 1 24.018736134675446,6.953439040707552 Z M 161.12274736930922,22.55354848017913 L 161.08754680098411,21.5541682122182 A 465.30906569902623 465.30906569902623 0 0 0 259.6572281202237,7.42069956421972 L 258.9161153845026,4.5136818633874745 L 266.56378821145245,6.175939464342533 L 260.6453784345185,11.296723165329379 L 259.90426569879736,8.389705464497135 A 466.30906569902623 466.30906569902623 0 0 1 161.12274736930922,22.55354848017913"/><text text-anchor="middle" pointer-events="none" font-size="8px" fill="#000000" x="141.87222452017258" y="25.333900726099955" font-family="Helvetica Neue, Helvetica, Arial, sans-serif">has_goal</text></g></g><g class="layer nodes"><g class="node" aria-label="graph-node0" transform="translate(15.522364433490004,539.8591438125745)"><circle class="b-outline" cx="0" cy="0" r="25" fill="#C990C0" stroke="#b261a5" stroke-width="2px"/><text class="caption" text-anchor="middle" pointer-events="none" x="0" y="5" font-size="10px" fill="#FFFFFF" font-family="Helvetica Neue, Helvetica, Arial, sans-serif"> user_1</text></g><g class="node" aria-label="graph-node1" transform="translate(2.8191687694375585,694.7640563851443)"><circle class="b-outline" cx="0" cy="0" r="25" fill="#F79767" stroke="#f36924" stroke-width="2px"/><text class="caption" text-anchor="middle" pointer-events="none" x="0" y="5" font-size="10px" fill="#FFFFFF" font-family="Helvetica Neue, Helvetica, Arial, sans-serif"> gym</text></g><g class="node" aria-label="graph-node2" transform="translate(99.26570681502868,669.659005927838)"><circle class="b-outline" cx="0" cy="0" r="25" fill="#C990C0" stroke="#b261a5" stroke-width="2px"/><text class="caption" text-anchor="middle" pointer-events="none" x="0" y="5" font-size="10px" fill="#FFFFFF" font-family="Helvetica Neue, Helvetica, Arial, sans-serif"> rohan_g…</text></g><g class="node" aria-label="graph-node3" transform="translate(-200.4195434452227,657.8948533486306)"><circle class="b-outline" cx="0" cy="0" r="25" fill="#57C7E3" stroke="#23b3d7" stroke-width="2px"/><text class="caption" text-anchor="middle" pointer-events="none" x="0" y="5" font-size="10px" fill="#2A2C34" font-family="Helvetica Neue, Helvetica, Arial, sans-serif"> lean_ph…</text></g><g class="node" aria-label="graph-node4" transform="translate(220.11467503554226,333.2188970581095)"><circle class="b-outline" cx="0" cy="0" r="25" fill="#F16667" stroke="#eb2728" stroke-width="2px"/><text class="caption" text-anchor="middle" pointer-events="none" x="0" y="5" font-size="10px" fill="#FFFFFF" font-family="Helvetica Neue, Helvetica, Arial, sans-serif"> clean_fo…</text></g><g class="node" aria-label="graph-node5" transform="translate(307.0526367728368,18.244807642836538)"><circle class="b-outline" cx="0" cy="0" r="25" fill="#D9C8AE" stroke="#c0a378" stroke-width="2px"/><text class="caption" text-anchor="middle" pointer-events="none" x="0" y="5" font-size="10px" fill="#2A2C34" font-family="Helvetica Neue, Helvetica, Arial, sans-serif"> whole_f…</text></g><g class="node" aria-label="graph-node6" transform="translate(-28.08755772394166,-168.66000559930342)"><circle class="b-outline" cx="0" cy="0" r="25" fill="#8DCC93" stroke="#5db665" stroke-width="2px"/><text class="caption" text-anchor="middle" pointer-events="none" x="0" y="5" font-size="10px" fill="#2A2C34" font-family="Helvetica Neue, Helvetica, Arial, sans-serif"> vegetabl…</text></g><g class="node" aria-label="graph-node7" transform="translate(188.27145691377305,-119.84045247352076)"><circle class="b-outline" cx="0" cy="0" r="25" fill="#8DCC93" stroke="#5db665" stroke-width="2px"/><text class="caption" text-anchor="middle" pointer-events="none" x="0" y="5" font-size="10px" fill="#2A2C34" font-family="Helvetica Neue, Helvetica, Arial, sans-serif"> fruits</text></g><g class="node" aria-label="graph-node8" transform="translate(574.0292018703121,215.03850091129604)"><circle class="b-outline" cx="0" cy="0" r="25" fill="#8DCC93" stroke="#5db665" stroke-width="2px"/><text class="caption" text-anchor="middle" pointer-events="none" x="0" y="5" font-size="10px" fill="#2A2C34" font-family="Helvetica Neue, Helvetica, Arial, sans-serif"> lean_pro…</text></g><g class="node" aria-label="graph-node9" transform="translate(375.9254178316987,-207.1643899870055)"><circle class="b-outline" cx="0" cy="0" r="25" fill="#8DCC93" stroke="#5db665" stroke-width="2px"/><text class="caption" text-anchor="middle" pointer-events="none" x="0" y="5" font-size="10px" fill="#2A2C34" font-family="Helvetica Neue, Helvetica, Arial, sans-serif"> whole_g…</text></g><g class="node" aria-label="graph-node10" transform="translate(285.9343390167918,170.89139164120326)"><circle class="b-outline" cx="0" cy="0" r="25" fill="#8DCC93" stroke="#5db665" stroke-width="2px"/><text class="caption" text-anchor="middle" pointer-events="none" x="0" y="5" font-size="10px" fill="#2A2C34" font-family="Helvetica Neue, Helvetica, Arial, sans-serif"> legumes</text></g><g class="node" aria-label="graph-node11" transform="translate(496.0789199535455,64.94346774468896)"><circle class="b-outline" cx="0" cy="0" r="25" fill="#8DCC93" stroke="#5db665" stroke-width="2px"/><text class="caption" text-anchor="middle" pointer-events="none" x="0" y="5" font-size="10px" fill="#2A2C34" font-family="Helvetica Neue, Helvetica, Arial, sans-serif"> nuts</text></g><g class="node" aria-label="graph-node12" transform="translate(334.04340454910107,-297.62126309780194)"><circle class="b-outline" cx="0" cy="0" r="25" fill="#8DCC93" stroke="#5db665" stroke-width="2px"/><text class="caption" text-anchor="middle" pointer-events="none" x="0" y="5" font-size="10px" fill="#2A2C34" font-family="Helvetica Neue, Helvetica, Arial, sans-serif"> healthy_…</text></g><g class="node" aria-label="graph-node13" transform="translate(334.22470395599385,532.6037396603532)"><circle class="b-outline" cx="0" cy="0" r="25" fill="#D9C8AE" stroke="#c0a378" stroke-width="2px"/><text class="caption" text-anchor="middle" pointer-events="none" x="0" y="5" font-size="10px" fill="#2A2C34" font-family="Helvetica Neue, Helvetica, Arial, sans-serif"> process…</text></g><g class="node" aria-label="graph-node14" transform="translate(349.6395361264535,684.6152064800946)"><circle class="b-outline" cx="0" cy="0" r="25" fill="#ECB5C9" stroke="#da7298" stroke-width="2px"/><text class="caption" text-anchor="middle" pointer-events="none" x="0" y="5" font-size="10px" fill="#2A2C34" font-family="Helvetica Neue, Helvetica, Arial, sans-serif"> sugar</text></g><g class="node" aria-label="graph-node15" transform="translate(441.0172512652658,644.8275186544961)"><circle class="b-outline" cx="0" cy="0" r="25" fill="#ECB5C9" stroke="#da7298" stroke-width="2px"/><text class="caption" text-anchor="middle" pointer-events="none" x="0" y="5" font-size="10px" fill="#2A2C34" font-family="Helvetica Neue, Helvetica, Arial, sans-serif"> refined_…</text></g><g class="node" aria-label="graph-node16" transform="translate(483.6532135088716,554.6780930266659)"><circle class="b-outline" cx="0" cy="0" r="25" fill="#ECB5C9" stroke="#da7298" stroke-width="2px"/><text class="caption" text-anchor="middle" pointer-events="none" x="0" y="5" font-size="10px" fill="#2A2C34" font-family="Helvetica Neue, Helvetica, Arial, sans-serif"> artificial_…</text></g><g class="node" aria-label="graph-node17" transform="translate(187.60780440743545,476.0007751023125)"><circle class="b-outline" cx="0" cy="0" r="25" fill="#4C8EDA" stroke="#2870c2" stroke-width="2px"/><text class="caption" text-anchor="middle" pointer-events="none" x="0" y="5" font-size="10px" fill="#FFFFFF" font-family="Helvetica Neue, Helvetica, Arial, sans-serif"> water</text></g><g class="node" aria-label="graph-node18" transform="translate(628.3165526861603,366.4691132438221)"><circle class="b-outline" cx="0" cy="0" r="25" fill="#8DCC93" stroke="#5db665" stroke-width="2px"/><text class="caption" text-anchor="middle" pointer-events="none" x="0" y="5" font-size="10px" fill="#2A2C34" font-family="Helvetica Neue, Helvetica, Arial, sans-serif"> chicken_…</text></g><g class="node" aria-label="graph-node19" transform="translate(529.1801401546965,362.32538429570263)"><circle class="b-outline" cx="0" cy="0" r="25" fill="#8DCC93" stroke="#5db665" stroke-width="2px"/><text class="caption" text-anchor="middle" pointer-events="none" x="0" y="5" font-size="10px" fill="#2A2C34" font-family="Helvetica Neue, Helvetica, Arial, sans-serif"> turkey</text></g><g class="node" aria-label="graph-node20" transform="translate(731.8742202030045,210.32375159880573)"><circle class="b-outline" cx="0" cy="0" r="25" fill="#8DCC93" stroke="#5db665" stroke-width="2px"/><text class="caption" text-anchor="middle" pointer-events="none" x="0" y="5" font-size="10px" fill="#2A2C34" font-family="Helvetica Neue, Helvetica, Arial, sans-serif"> fish</text></g><g class="node" aria-label="graph-node21" transform="translate(707.3300476387486,306.6973223986832)"><circle class="b-outline" cx="0" cy="0" r="25" fill="#8DCC93" stroke="#5db665" stroke-width="2px"/><text class="caption" text-anchor="middle" pointer-events="none" x="0" y="5" font-size="10px" fill="#2A2C34" font-family="Helvetica Neue, Helvetica, Arial, sans-serif"> tofu</text></g><g class="node" aria-label="graph-node22" transform="translate(453.45442939819395,297.40517701532883)"><circle class="b-outline" cx="0" cy="0" r="25" fill="#8DCC93" stroke="#5db665" stroke-width="2px"/><text class="caption" text-anchor="middle" pointer-events="none" x="0" y="5" font-size="10px" fill="#2A2C34" font-family="Helvetica Neue, Helvetica, Arial, sans-serif"> lentils</text></g><g class="node" aria-label="graph-node23" transform="translate(607.7698113491888,71.39235478179923)"><circle class="b-outline" cx="0" cy="0" r="25" fill="#8DCC93" stroke="#5db665" stroke-width="2px"/><text class="caption" text-anchor="middle" pointer-events="none" x="0" y="5" font-size="10px" fill="#2A2C34" font-family="Helvetica Neue, Helvetica, Arial, sans-serif"> eggs</text></g><g class="node" aria-label="graph-node24" transform="translate(695.5251241051112,117.6354230017873)"><circle class="b-outline" cx="0" cy="0" r="25" fill="#8DCC93" stroke="#5db665" stroke-width="2px"/><text class="caption" text-anchor="middle" pointer-events="none" x="0" y="5" font-size="10px" fill="#2A2C34" font-family="Helvetica Neue, Helvetica, Arial, sans-serif"> greek_y…</text></g><g class="node" aria-label="graph-node25" transform="translate(354.2184046008103,-414.4706599699893)"><circle class="b-outline" cx="0" cy="0" r="25" fill="#8DCC93" stroke="#5db665" stroke-width="2px"/><text class="caption" text-anchor="middle" pointer-events="none" x="0" y="5" font-size="10px" fill="#2A2C34" font-family="Helvetica Neue, Helvetica, Arial, sans-serif"> quinoa</text></g><g class="node" aria-label="graph-node26" transform="translate(514.9262631677503,-135.46111030486435)"><circle class="b-outline" cx="0" cy="0" r="25" fill="#8DCC93" stroke="#5db665" stroke-width="2px"/><text class="caption" text-anchor="middle" pointer-events="none" x="0" y="5" font-size="10px" fill="#2A2C34" font-family="Helvetica Neue, Helvetica, Arial, sans-serif"> brown_ri…</text></g><g class="node" aria-label="graph-node27" transform="translate(559.6171232652931,-224.1631905067964)"><circle class="b-outline" cx="0" cy="0" r="25" fill="#8DCC93" stroke="#5db665" stroke-width="2px"/><text class="caption" text-anchor="middle" pointer-events="none" x="0" y="5" font-size="10px" fill="#2A2C34" font-family="Helvetica Neue, Helvetica, Arial, sans-serif"> oats</text></g><g class="node" aria-label="graph-node28" transform="translate(265.3667750747588,-369.93136871604366)"><circle class="b-outline" cx="0" cy="0" r="25" fill="#8DCC93" stroke="#5db665" stroke-width="2px"/><text class="caption" text-anchor="middle" pointer-events="none" x="0" y="5" font-size="10px" fill="#2A2C34" font-family="Helvetica Neue, Helvetica, Arial, sans-serif"> sweet_p…</text></g><g class="node" aria-label="graph-node29" transform="translate(151.56564067305655,232.5933711671658)"><circle class="b-outline" cx="0" cy="0" r="25" fill="#8DCC93" stroke="#5db665" stroke-width="2px"/><text class="caption" text-anchor="middle" pointer-events="none" x="0" y="5" font-size="10px" fill="#2A2C34" font-family="Helvetica Neue, Helvetica, Arial, sans-serif"> beans</text></g><g class="node" aria-label="graph-node30" transform="translate(464.7342030081498,-251.10956783586272)"><circle class="b-outline" cx="0" cy="0" r="25" fill="#8DCC93" stroke="#5db665" stroke-width="2px"/><text class="caption" text-anchor="middle" pointer-events="none" x="0" y="5" font-size="10px" fill="#2A2C34" font-family="Helvetica Neue, Helvetica, Arial, sans-serif"> avocado</text></g><g class="node" aria-label="graph-node31" transform="translate(393.2218104954963,-505.44266503930675)"><circle class="b-outline" cx="0" cy="0" r="25" fill="#8DCC93" stroke="#5db665" stroke-width="2px"/><text class="caption" text-anchor="middle" pointer-events="none" x="0" y="5" font-size="10px" fill="#2A2C34" font-family="Helvetica Neue, Helvetica, Arial, sans-serif"> olive_oil</text></g><g class="node" aria-label="graph-node32" transform="translate(504.46682619941566,-341.68757267345916)"><circle class="b-outline" cx="0" cy="0" r="25" fill="#8DCC93" stroke="#5db665" stroke-width="2px"/><text class="caption" text-anchor="middle" pointer-events="none" x="0" y="5" font-size="10px" fill="#2A2C34" font-family="Helvetica Neue, Helvetica, Arial, sans-serif"> almonds</text></g><g class="node" aria-label="graph-node33" transform="translate(452.2729070047927,-426.18373716533364)"><circle class="b-outline" cx="0" cy="0" r="25" fill="#8DCC93" stroke="#5db665" stroke-width="2px"/><text class="caption" text-anchor="middle" pointer-events="none" x="0" y="5" font-size="10px" fill="#2A2C34" font-family="Helvetica Neue, Helvetica, Arial, sans-serif"> walnuts</text></g><g class="node" aria-label="graph-node34" transform="translate(98.98668971293665,-227.08687320507482)"><circle class="b-outline" cx="0" cy="0" r="25" fill="#8DCC93" stroke="#5db665" stroke-width="2px"/><text class="caption" text-anchor="middle" pointer-events="none" x="0" y="5" font-size="10px" fill="#2A2C34" font-family="Helvetica Neue, Helvetica, Arial, sans-serif"> chia_se…</text></g><g class="node" aria-label="graph-node35" transform="translate(54.895854702774166,-355.8367984159263)"><circle class="b-outline" cx="0" cy="0" r="25" fill="#8DCC93" stroke="#5db665" stroke-width="2px"/><text class="caption" text-anchor="middle" pointer-events="none" x="0" y="5" font-size="10px" fill="#2A2C34" font-family="Helvetica Neue, Helvetica, Arial, sans-serif"> broccoli</text></g><g class="node" aria-label="graph-node36" transform="translate(-99.13678733959051,-33.571714991908735)"><circle class="b-outline" cx="0" cy="0" r="25" fill="#8DCC93" stroke="#5db665" stroke-width="2px"/><text class="caption" text-anchor="middle" pointer-events="none" x="0" y="5" font-size="10px" fill="#2A2C34" font-family="Helvetica Neue, Helvetica, Arial, sans-serif"> spinach</text></g><g class="node" aria-label="graph-node37" transform="translate(-0.7996541106155863,-17.39962688727773)"><circle class="b-outline" cx="0" cy="0" r="25" fill="#8DCC93" stroke="#5db665" stroke-width="2px"/><text class="caption" text-anchor="middle" pointer-events="none" x="0" y="5" font-size="10px" fill="#2A2C34" font-family="Helvetica Neue, Helvetica, Arial, sans-serif"> kale</text></g><g class="node" aria-label="graph-node38" transform="translate(3.5002386926224482,-262.92677599201096)"><circle class="b-outline" cx="0" cy="0" r="25" fill="#8DCC93" stroke="#5db665" stroke-width="2px"/><text class="caption" text-anchor="middle" pointer-events="none" x="0" y="5" font-size="10px" fill="#2A2C34" font-family="Helvetica Neue, Helvetica, Arial, sans-serif"> berries</text></g><g class="node" aria-label="graph-node39" transform="translate(331.75833210552594,-84.43075209648404)"><circle class="b-outline" cx="0" cy="0" r="25" fill="#8DCC93" stroke="#5db665" stroke-width="2px"/><text class="caption" text-anchor="middle" pointer-events="none" x="0" y="5" font-size="10px" fill="#2A2C34" font-family="Helvetica Neue, Helvetica, Arial, sans-serif"> apples</text></g><g class="node" aria-label="graph-node40" transform="translate(82.39446620138065,-72.45194580822434)"><circle class="b-outline" cx="0" cy="0" r="25" fill="#8DCC93" stroke="#5db665" stroke-width="2px"/><text class="caption" text-anchor="middle" pointer-events="none" x="0" y="5" font-size="10px" fill="#2A2C34" font-family="Helvetica Neue, Helvetica, Arial, sans-serif"> peppers</text></g><g class="node" aria-label="graph-node41" transform="translate(-291.77827112773076,780.7790224423853)"><circle class="b-outline" cx="0" cy="0" r="25" fill="#FFC454" stroke="#d7a013" stroke-width="2px"/><text class="caption" text-anchor="middle" pointer-events="none" x="0" y="5" font-size="10px" fill="#2A2C34" font-family="Helvetica Neue, Helvetica, Arial, sans-serif"> strength…</text></g><g class="node" aria-label="graph-node42" transform="translate(-351.80096261540194,701.5560074394419)"><circle class="b-outline" cx="0" cy="0" r="25" fill="#FFC454" stroke="#d7a013" stroke-width="2px"/><text class="caption" text-anchor="middle" pointer-events="none" x="0" y="5" font-size="10px" fill="#2A2C34" font-family="Helvetica Neue, Helvetica, Arial, sans-serif"> cardio</text></g><g class="node" aria-label="graph-node43" transform="translate(-195.9675984043601,807.9130558412014)"><circle class="b-outline" cx="0" cy="0" r="25" fill="#FFC454" stroke="#d7a013" stroke-width="2px"/><text class="caption" text-anchor="middle" pointer-events="none" x="0" y="5" font-size="10px" fill="#2A2C34" font-family="Helvetica Neue, Helvetica, Arial, sans-serif"> high-inte…</text></g><g class="node" aria-label="graph-node44" transform="translate(-181.5016389905657,514.2861452889335)"><circle class="b-outline" cx="0" cy="0" r="25" fill="#DA7194" stroke="#cc3c6c" stroke-width="2px"/><text class="caption" text-anchor="middle" pointer-events="none" x="0" y="5" font-size="10px" fill="#FFFFFF" font-family="Helvetica Neue, Helvetica, Arial, sans-serif"> walking</text></g><g class="node" aria-label="graph-node45" transform="translate(-67.80795655560982,624.5605875946767)"><circle class="b-outline" cx="0" cy="0" r="25" fill="#DA7194" stroke="#cc3c6c" stroke-width="2px"/><text class="caption" text-anchor="middle" pointer-events="none" x="0" y="5" font-size="10px" fill="#FFFFFF" font-family="Helvetica Neue, Helvetica, Arial, sans-serif"> cycling</text></g><g class="node" aria-label="graph-node46" transform="translate(-279.9858686921228,529.4469180667735)"><circle class="b-outline" cx="0" cy="0" r="25" fill="#DA7194" stroke="#cc3c6c" stroke-width="2px"/><text class="caption" text-anchor="middle" pointer-events="none" x="0" y="5" font-size="10px" fill="#FFFFFF" font-family="Helvetica Neue, Helvetica, Arial, sans-serif"> hiking</text></g><g class="node" aria-label="graph-node47" transform="translate(-14.365440145994576,-427.5155964402817)"><circle class="b-outline" cx="0" cy="0" r="25" fill="#8DCC93" stroke="#5db665" stroke-width="2px"/><text class="caption" text-anchor="middle" pointer-events="none" x="0" y="5" font-size="10px" fill="#2A2C34" font-family="Helvetica Neue, Helvetica, Arial, sans-serif"> oatmeal</text></g><g class="node" aria-label="graph-node48" transform="translate(405.0870582611508,-626.7760085182581)"><circle class="b-outline" cx="0" cy="0" r="25" fill="#8DCC93" stroke="#5db665" stroke-width="2px"/><text class="caption" text-anchor="middle" pointer-events="none" x="0" y="5" font-size="10px" fill="#2A2C34" font-family="Helvetica Neue, Helvetica, Arial, sans-serif"> grilled_c…</text></g><g class="node" aria-label="graph-node49" transform="translate(157.08660253997706,-510.16021297769447)"><circle class="b-outline" cx="0" cy="0" r="25" fill="#8DCC93" stroke="#5db665" stroke-width="2px"/><text class="caption" text-anchor="middle" pointer-events="none" x="0" y="5" font-size="10px" fill="#2A2C34" font-family="Helvetica Neue, Helvetica, Arial, sans-serif"> salmon</text></g><g class="node" aria-label="graph-node50" transform="translate(-348.12001513917664,602.1679543370299)"><circle class="b-outline" cx="0" cy="0" r="25" fill="#569480" stroke="#447666" stroke-width="2px"/><text class="caption" text-anchor="middle" pointer-events="none" x="0" y="5" font-size="10px" fill="#FFFFFF" font-family="Helvetica Neue, Helvetica, Arial, sans-serif"> sleep</text></g><g class="node" aria-label="graph-node51" transform="translate(-453.35391702411937,-17.44773950397647)"><circle class="b-outline" cx="0" cy="0" r="25" fill="#A5ABB6" stroke="#9AA1AC" stroke-width="2px"/><text class="caption" text-anchor="middle" pointer-events="none" x="0" y="5" font-size="10px" fill="#FFFFFF" font-family="Helvetica Neue, Helvetica, Arial, sans-serif"> breakfas…</text></g><g class="node" aria-label="graph-node52" transform="translate(-407.0493676665958,-350.82930788683643)"><circle class="b-outline" cx="0" cy="0" r="25" fill="#A5ABB6" stroke="#9AA1AC" stroke-width="2px"/><text class="caption" text-anchor="middle" pointer-events="none" x="0" y="5" font-size="10px" fill="#FFFFFF" font-family="Helvetica Neue, Helvetica, Arial, sans-serif"> lean_so…</text></g><g class="node" aria-label="graph-node53" transform="translate(-307.6919774984494,-482.006542651873)"><circle class="b-outline" cx="0" cy="0" r="25" fill="#8DCC93" stroke="#5db665" stroke-width="2px"/><text class="caption" text-anchor="middle" pointer-events="none" x="0" y="5" font-size="10px" fill="#2A2C34" font-family="Helvetica Neue, Helvetica, Arial, sans-serif"> egg_whi…</text></g><g class="node" aria-label="graph-node54" transform="translate(-393.60156805439453,-530.1681366501125)"><circle class="b-outline" cx="0" cy="0" r="25" fill="#8DCC93" stroke="#5db665" stroke-width="2px"/><text class="caption" text-anchor="middle" pointer-events="none" x="0" y="5" font-size="10px" fill="#2A2C34" font-family="Helvetica Neue, Helvetica, Arial, sans-serif"> whole_e…</text></g><g class="node" aria-label="graph-node55" transform="translate(-391.93052772282675,-208.74029923369972)"><circle class="b-outline" cx="0" cy="0" r="25" fill="#8DCC93" stroke="#5db665" stroke-width="2px"/><text class="caption" text-anchor="middle" pointer-events="none" x="0" y="5" font-size="10px" fill="#2A2C34" font-family="Helvetica Neue, Helvetica, Arial, sans-serif"> grilled_c…</text></g><g class="node" aria-label="graph-node56" transform="translate(-453.2879874130433,-451.5715982651857)"><circle class="b-outline" cx="0" cy="0" r="25" fill="#8DCC93" stroke="#5db665" stroke-width="2px"/><text class="caption" text-anchor="middle" pointer-events="none" x="0" y="5" font-size="10px" fill="#2A2C34" font-family="Helvetica Neue, Helvetica, Arial, sans-serif"> nonfat_g…</text></g><g class="node" aria-label="graph-node57" transform="translate(-492.6462153199695,-539.7740995828947)"><circle class="b-outline" cx="0" cy="0" r="25" fill="#8DCC93" stroke="#5db665" stroke-width="2px"/><text class="caption" text-anchor="middle" pointer-events="none" x="0" y="5" font-size="10px" fill="#2A2C34" font-family="Helvetica Neue, Helvetica, Arial, sans-serif"> skyr</text></g><g class="node" aria-label="graph-node58" transform="translate(-265.90720667283966,-392.2891095113824)"><circle class="b-outline" cx="0" cy="0" r="25" fill="#8DCC93" stroke="#5db665" stroke-width="2px"/><text class="caption" text-anchor="middle" pointer-events="none" x="0" y="5" font-size="10px" fill="#2A2C34" font-family="Helvetica Neue, Helvetica, Arial, sans-serif"> cottage_…</text></g><g class="node" aria-label="graph-node59" transform="translate(-552.0155272377923,-461.3789551302355)"><circle class="b-outline" cx="0" cy="0" r="25" fill="#8DCC93" stroke="#5db665" stroke-width="2px"/><text class="caption" text-anchor="middle" pointer-events="none" x="0" y="5" font-size="10px" fill="#2A2C34" font-family="Helvetica Neue, Helvetica, Arial, sans-serif"> smoked…</text></g><g class="node" aria-label="graph-node60" transform="translate(-608.7887350670383,-379.4505736269563)"><circle class="b-outline" cx="0" cy="0" r="25" fill="#8DCC93" stroke="#5db665" stroke-width="2px"/><text class="caption" text-anchor="middle" pointer-events="none" x="0" y="5" font-size="10px" fill="#2A2C34" font-family="Helvetica Neue, Helvetica, Arial, sans-serif"> turkey_b…</text></g><g class="node" aria-label="graph-node61" transform="translate(-238.035773605035,-231.2830379140793)"><circle class="b-outline" cx="0" cy="0" r="25" fill="#8DCC93" stroke="#5db665" stroke-width="2px"/><text class="caption" text-anchor="middle" pointer-events="none" x="0" y="5" font-size="10px" fill="#2A2C34" font-family="Helvetica Neue, Helvetica, Arial, sans-serif"> tofu_scr…</text></g><g class="node" aria-label="graph-node62" transform="translate(-195.69706096671564,-320.62040747788524)"><circle class="b-outline" cx="0" cy="0" r="25" fill="#8DCC93" stroke="#5db665" stroke-width="2px"/><text class="caption" text-anchor="middle" pointer-events="none" x="0" y="5" font-size="10px" fill="#2A2C34" font-family="Helvetica Neue, Helvetica, Arial, sans-serif"> tempeh</text></g><g class="node" aria-label="graph-node63" transform="translate(-512.3978959168825,-371.3038425904325)"><circle class="b-outline" cx="0" cy="0" r="25" fill="#8DCC93" stroke="#5db665" stroke-width="2px"/><text class="caption" text-anchor="middle" pointer-events="none" x="0" y="5" font-size="10px" fill="#2A2C34" font-family="Helvetica Neue, Helvetica, Arial, sans-serif"> protein_…</text></g><g class="node" aria-label="graph-node64" transform="translate(-566.9868128025875,-289.2783948095351)"><circle class="b-outline" cx="0" cy="0" r="25" fill="#8DCC93" stroke="#5db665" stroke-width="2px"/><text class="caption" text-anchor="middle" pointer-events="none" x="0" y="5" font-size="10px" fill="#2A2C34" font-family="Helvetica Neue, Helvetica, Arial, sans-serif"> plant_pr…</text></g><g class="node" aria-label="graph-node65" transform="translate(-489.8813972956202,-226.5808281480923)"><circle class="b-outline" cx="0" cy="0" r="25" fill="#8DCC93" stroke="#5db665" stroke-width="2px"/><text class="caption" text-anchor="middle" pointer-events="none" x="0" y="5" font-size="10px" fill="#2A2C34" font-family="Helvetica Neue, Helvetica, Arial, sans-serif"> edamame</text></g><g class="node" aria-label="graph-node66" transform="translate(-552.3362972012809,-128.28749272912182)"><circle class="b-outline" cx="0" cy="0" r="25" fill="#8DCC93" stroke="#5db665" stroke-width="2px"/><text class="caption" text-anchor="middle" pointer-events="none" x="0" y="5" font-size="10px" fill="#2A2C34" font-family="Helvetica Neue, Helvetica, Arial, sans-serif"> egg_whi…</text></g><g class="node" aria-label="graph-node67" transform="translate(-174.52569567603118,-127.6333606378681)"><circle class="b-outline" cx="0" cy="0" r="25" fill="#8DCC93" stroke="#5db665" stroke-width="2px"/><text class="caption" text-anchor="middle" pointer-events="none" x="0" y="5" font-size="10px" fill="#2A2C34" font-family="Helvetica Neue, Helvetica, Arial, sans-serif"> greek_y…</text></g><g class="node" aria-label="graph-node68" transform="translate(-586.2668201892728,110.36098648519652)"><circle class="b-outline" cx="0" cy="0" r="25" fill="#8DCC93" stroke="#5db665" stroke-width="2px"/><text class="caption" text-anchor="middle" pointer-events="none" x="0" y="5" font-size="10px" fill="#2A2C34" font-family="Helvetica Neue, Helvetica, Arial, sans-serif"> cottage_…</text></g><g class="node" aria-label="graph-node69" transform="translate(-556.5225337035292,16.57795687712515)"><circle class="b-outline" cx="0" cy="0" r="25" fill="#8DCC93" stroke="#5db665" stroke-width="2px"/><text class="caption" text-anchor="middle" pointer-events="none" x="0" y="5" font-size="10px" fill="#2A2C34" font-family="Helvetica Neue, Helvetica, Arial, sans-serif"> whole_g…</text></g><g class="node" aria-label="graph-node70" transform="translate(-622.0173534494487,-58.063905974217406)"><circle class="b-outline" cx="0" cy="0" r="25" fill="#8DCC93" stroke="#5db665" stroke-width="2px"/><text class="caption" text-anchor="middle" pointer-events="none" x="0" y="5" font-size="10px" fill="#2A2C34" font-family="Helvetica Neue, Helvetica, Arial, sans-serif"> veggie-fi…</text></g><g class="node" aria-label="graph-node71" transform="translate(-311.6702759818932,-23.392075794592824)"><circle class="b-outline" cx="0" cy="0" r="25" fill="#8DCC93" stroke="#5db665" stroke-width="2px"/><text class="caption" text-anchor="middle" pointer-events="none" x="0" y="5" font-size="10px" fill="#2A2C34" font-family="Helvetica Neue, Helvetica, Arial, sans-serif"> process…</text></g><g class="node" aria-label="graph-node72" transform="translate(-651.3353195464879,36.27519033905412)"><circle class="b-outline" cx="0" cy="0" r="25" fill="#8DCC93" stroke="#5db665" stroke-width="2px"/><text class="caption" text-anchor="middle" pointer-events="none" x="0" y="5" font-size="10px" fill="#2A2C34" font-family="Helvetica Neue, Helvetica, Arial, sans-serif"> bacon</text></g><g class="node" aria-label="graph-node73" transform="translate(-498.34644636098676,153.2830090473747)"><circle class="b-outline" cx="0" cy="0" r="25" fill="#8DCC93" stroke="#5db665" stroke-width="2px"/><text class="caption" text-anchor="middle" pointer-events="none" x="0" y="5" font-size="10px" fill="#2A2C34" font-family="Helvetica Neue, Helvetica, Arial, sans-serif"> sausage</text></g><g class="node" aria-label="graph-node74" transform="translate(-325.23776373379906,74.85247630323137)"><circle class="b-outline" cx="0" cy="0" r="25" fill="#8DCC93" stroke="#5db665" stroke-width="2px"/><text class="caption" text-anchor="middle" pointer-events="none" x="0" y="5" font-size="10px" fill="#2A2C34" font-family="Helvetica Neue, Helvetica, Arial, sans-serif"> added_s…</text></g><g class="node" aria-label="graph-node75" transform="translate(-400.515402508477,139.89370918678364)"><circle class="b-outline" cx="0" cy="0" r="25" fill="#8DCC93" stroke="#5db665" stroke-width="2px"/><text class="caption" text-anchor="middle" pointer-events="none" x="0" y="5" font-size="10px" fill="#2A2C34" font-family="Helvetica Neue, Helvetica, Arial, sans-serif"> process…</text></g></g></svg>